<?xml version="1.0" encoding="UTF-8"?>
<svg version="1.1" xmlns="http://www.w3.org/2000/svg" width="512" height="512">
<path d="M0 0 C3.65855856 0.01176203 7.31709667 0.0182444 10.97566986 0.02360535 C44.95420054 0.08176634 78.83161032 0.37884707 112.71559906 3.14897156 C115.80920283 3.39975902 118.90362629 3.63743126 121.99843597 3.87284851 C156.06525809 6.47979826 156.06525809 6.47979826 172.39199066 8.84745789 C173.19223663 8.96073425 173.9924826 9.07401062 174.81697845 9.1907196 C194.91851616 12.25002818 211.51036402 22.08780674 225.64589691 36.38652039 C226.44640472 37.1767157 227.24691254 37.96691101 228.07167816 38.78105164 C241.14396081 52.39519056 248.68418438 69.4649318 251.18105316 88.04667664 C251.30620804 88.95266098 251.43136292 89.85864532 251.56031036 90.79208374 C252.93593421 101.06477288 253.85065377 111.37238043 254.70839691 121.69902039 C254.8800004 123.7200188 255.05163165 125.74101486 255.22328949 127.76200867 C257.98213237 160.58844757 259.80283107 193.40255148 259.81386566 226.35136414 C259.81709738 228.68506895 259.8204627 231.01877358 259.82395172 233.35247803 C259.82988444 238.21563687 259.83179797 243.07877811 259.83119965 247.94194031 C259.83111884 252.83292882 259.83799807 257.72382275 259.85170746 262.61479187 C259.93435606 292.60027175 259.5915021 322.45868075 257.64589691 352.38652039 C257.52173904 354.31426804 257.52173904 354.31426804 257.39507294 356.28096008 C256.89788553 363.80094329 256.32567005 371.31303171 255.70839691 378.82402039 C255.62219086 379.89187775 255.5359848 380.95973511 255.44716644 382.05995178 C251.5700999 429.99552233 251.5700999 429.99552233 246.64589691 443.38652039 C246.28753754 444.40230164 245.92917816 445.41808289 245.55995941 446.46464539 C240.95915106 458.50702965 233.47560726 468.13557615 224.64589691 477.38652039 C223.85505707 478.28950867 223.85505707 478.28950867 223.04824066 479.21073914 C204.61754172 499.4326569 177.27822081 504.21044781 151.39589691 506.44902039 C149.58817586 506.61324245 147.78047785 506.77771832 145.97280121 506.94242859 C132.14876959 508.17811769 118.30758258 509.16858077 104.45839691 510.07402039 C103.52918427 510.13477753 102.59997162 510.19553467 101.64260101 510.25813293 C79.37118274 511.69551692 57.15248764 512.55133045 34.83339691 512.58964539 C33.68749084 512.59247276 32.54158478 512.59530014 31.36095428 512.5982132 C25.26745642 512.61308473 19.17398138 512.62238358 13.08046722 512.62675476 C8.18130075 512.63108732 3.28231558 512.64479158 -1.6167984 512.66777039 C-46.07114431 512.87169323 -90.38479801 511.32054309 -134.66001129 507.18876648 C-138.07318009 506.87198839 -141.48782216 506.57611706 -144.90293121 506.28105164 C-173.31687162 503.75256732 -196.4451949 497.65265924 -217.35410309 477.38652039 C-217.95351715 476.86058289 -218.55293121 476.33464539 -219.17050934 475.79277039 C-239.40779574 457.38670015 -244.17910314 430.00644256 -246.41660309 404.13652039 C-246.58082516 402.32879933 -246.74530102 400.52110132 -246.91001129 398.71342468 C-248.14570039 384.88939307 -249.13616347 371.04820605 -250.04160309 357.19902039 C-250.10236023 356.26980774 -250.16311737 355.34059509 -250.22571564 354.38322449 C-251.66309962 332.11180622 -252.51891315 309.89311112 -252.55722809 287.57402039 C-252.56005547 286.42811432 -252.56288284 285.28220825 -252.5657959 284.10157776 C-252.58066743 278.00807989 -252.58996628 271.91460486 -252.59433746 265.8210907 C-252.59867003 260.92192423 -252.61237428 256.02293906 -252.63535309 251.12382507 C-252.88474454 196.78367174 -251.71663939 141.48309843 -243.89316559 87.60527039 C-243.77988922 86.80716446 -243.66661285 86.00905853 -243.54990387 85.18676758 C-240.65904136 66.26476978 -231.71724836 49.94298421 -218.35410309 36.38652039 C-217.75468903 35.71491882 -217.15527496 35.04331726 -216.53769684 34.35136414 C-196.76198613 12.8671687 -168.73079506 8.43625551 -141.09165192 6.11332703 C-137.79797974 5.83511749 -134.5068786 5.53547822 -131.21543121 5.23222351 C-87.54608141 1.33651595 -43.82998854 -0.15232248 0 0 Z M17.64589691 96.38652039 C17.63187836 106.59915833 17.63187836 106.59915833 17.6175766 117.01811218 C17.58482282 138.83814129 17.53250519 160.65808891 17.46797596 182.47804646 C17.4579593 185.87112132 17.44811504 189.26419666 17.43837738 192.65727234 C17.43546532 193.67046162 17.43546532 193.67046162 17.43249443 194.70411936 C17.40152949 205.62052858 17.3845092 216.53691682 17.37270269 227.45336165 C17.36026251 238.66659105 17.3324019 249.87972448 17.29128385 261.09288913 C17.26869035 267.38614848 17.25298498 273.67925165 17.25401306 279.97255516 C17.2547609 285.90284582 17.23675979 291.8327915 17.20472908 297.76299286 C17.19624991 299.93285612 17.19446658 302.10275816 17.20009422 304.27263069 C17.2356899 320.11444721 16.10725688 333.04416567 6.64589691 346.38652039 C5.91113129 347.4325946 5.91113129 347.4325946 5.16152191 348.49980164 C-4.16597253 360.39004826 -17.84345382 364.89727196 -32.25254059 366.76152039 C-44.14409641 367.33288643 -56.88283998 363.52308402 -66.35410309 356.38652039 C-67.13269684 355.79999695 -67.91129059 355.21347351 -68.71347809 354.60917664 C-78.22449682 346.80567301 -84.238965 336.51414644 -86.35410309 324.38652039 C-88.04557217 306.79450166 -84.93352262 292.41978137 -73.76816559 278.39433289 C-64.64628581 268.38251361 -51.15773782 262.9572567 -37.82724762 262.18119812 C-36.55993805 262.14454041 -35.29262848 262.10788269 -33.98691559 262.07011414 C-32.74313141 262.03200623 -31.49934723 261.99389832 -30.21787262 261.95463562 C-28.65407867 261.91153259 -27.09028473 261.86842957 -25.47910309 261.82402039 C-20.48785309 261.67964539 -15.49660309 261.53527039 -10.35410309 261.38652039 C-10.35410309 245.21652039 -10.35410309 229.04652039 -10.35410309 212.38652039 C-48.37528427 212.04855433 -78.88018767 215.70423184 -107.66269684 242.64433289 C-126.4050126 261.74027725 -136.8182394 287.4138693 -136.66660309 314.13652039 C-136.66096344 315.18710632 -136.65532379 316.23769226 -136.64951324 317.32011414 C-136.27380454 341.51426694 -126.96044656 363.08825304 -111.35410309 381.38652039 C-110.59097809 382.39714539 -109.82785309 383.40777039 -109.04160309 384.44902039 C-94.60321908 400.23050988 -74.94166223 409.77292279 -54.35410309 414.38652039 C-53.1436734 414.66302429 -53.1436734 414.66302429 -51.90879059 414.94511414 C-25.37533647 419.52964061 1.53579055 412.52698245 23.78652191 397.71806335 C29.22308602 393.8248096 33.96951564 389.14410034 38.64589691 384.38652039 C39.40644379 383.62468445 40.16699066 382.86284851 40.95058441 382.07792664 C63.82511047 357.82380854 66.97847507 327.63746696 66.84120941 296.08183289 C66.83747312 293.54593518 66.83462907 291.01003602 66.83263397 288.47413635 C66.82581853 282.51760316 66.8101102 276.56113694 66.78993499 270.60463798 C66.76744136 263.813643 66.756549 257.0226441 66.74654412 250.23162103 C66.72573923 236.28321292 66.69064817 222.33487079 66.64589691 208.38652039 C67.70373383 208.93066589 68.76157074 209.4748114 69.85146332 210.03544617 C71.27498296 210.75952829 72.69865664 211.48330765 74.12245941 212.20683289 C74.81541107 212.56430603 75.50836273 212.92177917 76.22231293 213.29008484 C97.61935895 224.11885074 120.21432339 223.63316853 143.64589691 223.38652039 C143.64589691 207.21652039 143.64589691 191.04652039 143.64589691 174.38652039 C134.35871457 174.17759685 134.35871457 174.17759685 125.07094574 173.99858093 C108.67783748 173.54077245 94.71855093 170.19792174 82.33339691 158.94902039 C69.6403937 145.40705611 67.40187786 129.62630335 67.02089691 111.82402039 C66.89714691 106.72964539 66.77339691 101.63527039 66.64589691 96.38652039 C50.47589691 96.38652039 34.30589691 96.38652039 17.64589691 96.38652039 Z " fill="#89B721" transform="translate(252.3541030883789,-0.3865203857421875)"/>
</svg>
